#!OML:ASF H:\Dans Jumps\Project 1\Capture day 1\Session 1\subject.ASF
:FULLY-SPECIFIED
:DEGREES
687
root 0.443035 17.7106 11.0666 6.4961 -0.779127 -1.49493
lowerback -3.44285 0.200559 0.0168305
upperback 3.16491 0.214801 1.09786
thorax 5.2007 0.0845793 1.14443
lowerneck -12.5945 0.584691 -1.60127
upperneck 33.6061 1.10533 0.59204
head 13.3901 0.359775 0.680036
rclavicle -4.47266e-015 -2.98177e-016
rhumerus -25.8986 -20.8348 -77.8983
rradius 23.332
rwrist 36.8291
rhand -17.2039 -26.5691
rfingers 7.12502
rthumb 9.03862 -56.3554
lclavicle -4.47266e-015 -2.98177e-016
lhumerus -22.6118 7.10282 84.2433
lradius 15.3714
lwrist -2.43847
lhand -24.0912 -6.32802
lfingers 7.12502
lthumb 2.38927 23.6383
rfemur -13.5216 -1.71688 20.2374
rtibia 20.7643
rfoot -13.4508 0.828256
rtoes 13.3512
lfemur -11.0699 6.53504 -17.4841
ltibia 17.5892
lfoot -10.2048 5.0584
ltoes -8.22422
688
root 0.444711 17.7104 11.0679 6.49956 -0.783416 -1.48331
lowerback -3.43573 0.198228 0.0118784
upperback 3.1709 0.212064 1.09568
thorax 5.20293 0.0830589 1.14473
lowerneck -12.5863 0.586162 -1.60355
upperneck 33.6679 1.10865 0.591112
head 13.4152 0.360253 0.681029
rclavicle 1.76421e-015 -2.68359e-015
rhumerus -25.8147 -20.6794 -77.9542
rradius 23.4657
rwrist 36.6314
rhand -17.2198 -26.5971
rfingers 7.12502
rthumb 9.02327 -56.3841
lclavicle 1.76421e-015 -2.68359e-015
lhumerus -22.605 7.03099 84.2923
lradius 15.4122
lwrist -2.33515
lhand -24.1144 -6.38297
lfingers 7.12502
lthumb 2.36685 23.5836
rfemur -13.53 -1.7391 20.2194
rtibia 20.7793
rfoot -13.4599 0.847835
rtoes 13.3327
lfemur -11.066 6.53398 -17.5045
ltibia 17.5849
lfoot -10.2031 5.06656
ltoes -8.24563
689
root 0.446253 17.7103 11.069 6.50446 -0.788455 -1.47224
lowerback -3.4311 0.196777 0.00644223
upperback 3.17774 0.210479 1.09412
thorax 5.20747 0.0820686 1.14606
lowerneck -12.5852 0.587987 -1.60089
upperneck 33.7357 1.11325 0.584652
head 13.4446 0.361127 0.67926
rclavicle -1.73937e-016 3.47873e-015
rhumerus -25.7238 -20.5116 -78.0177
rradius 23.6033
rwrist 36.4171
rhand -17.2338 -26.6282
rfingers 7.12502
rthumb 9.0097 -56.4158
lclavicle -1.73937e-016 3.47873e-015
lhumerus -22.592 6.9204 84.3558
lradius 15.4674
lwrist -2.17549
lhand -24.1205 -6.38066
lfingers 7.12502
lthumb 2.36094 23.586
rfemur -13.5403 -1.75438 20.2025
rtibia 20.7937
rfoot -13.4674 0.86079
rtoes 13.3035
lfemur -11.0658 6.53126 -17.5238
ltibia 17.5841
lfoot -10.2013 5.07632
ltoes -8.26034
690
root 0.447671 17.7102 11.0697 6.51068 -0.793577 -1.46831
lowerback -3.42556 0.196145 0.00714448
upperback 3.18358 0.209531 1.09497
thorax 5.21044 0.0815814 1.14648
lowerneck -12.5844 0.590981 -1.59009
upperneck 33.8068 1.1201 0.570257
head 13.4756 0.362943 0.673286
rclavicle -3.90115e-015 1.68967e-015
rhumerus -25.6327 -20.3247 -78.0895
rradius 23.7506
rwrist 36.1854
rhand -17.2471 -26.6613
rfingers 7.12502
rthumb 8.99691 -56.4495
lclavicle -3.90115e-015 1.68967e-015
lhumerus -22.5798 6.7929 84.4277
lradius 15.5334
lwrist -1.99117
lhand -24.1165 -6.34999
lfingers 7.12502
lthumb 2.3648 23.6166
rfemur -13.5528 -1.75956 20.1941
rtibia 20.8062
rfoot -13.4711 0.863431
rtoes 13.2697
lfemur -11.0717 6.52763 -17.5344
ltibia 17.5879
lfoot -10.2004 5.08551
ltoes -8.26319
691
root 0.448913 17.7102 11.0701 6.51666 -0.801596 -1.46552
lowerback -3.42065 0.19706 0.00709907
upperback 3.19111 0.210651 1.0963
thorax 5.2155 0.0820702 1.14799
lowerneck -12.5902 0.595817 -1.57127
upperneck 33.8811 1.12963 0.550141
head 13.5096 0.366152 0.664101
rclavicle 3.72721e-016 -9.83984e-015
rhumerus -25.5347 -20.1302 -78.1685
rradius 23.9008
rwrist 35.9473
rhand -17.2687 -26.6817
rfingers 7.12502
rthumb 8.97607 -56.4707
lclavicle 3.72721e-016 -9.83984e-015
lhumerus -22.5638 6.64754 84.5072
lradius 15.6041
lwrist -1.79167
lhand -24.1062 -6.30008
lfingers 7.12502
lthumb 2.37481 23.6664
rfemur -13.5648 -1.75561 20.1876
rtibia 20.8163
rfoot -13.4728 0.859296
rtoes 13.2302
lfemur -11.0796 6.52679 -17.5431
ltibia 17.5949
lfoot -10.2003 5.09496
ltoes -8.26732
692
root 0.450038 17.7102 11.0705 6.52368 -0.809615 -1.46609
lowerback -3.41591 0.19859 0.00974418
upperback 3.19749 0.21241 1.0984
thorax 5.21944 0.0829671 1.14882
lowerneck -12.5961 0.600102 -1.55584
upperneck 33.9592 1.13755 0.535211
head 13.5453 0.368888 0.657345
rclavicle 3.37934e-015 7.35503e-015
rhumerus -25.4369 -19.923 -78.2533
rradius 24.0575
rwrist 35.7008
rhand -17.2819 -26.6986
rfingers 7.12502
rthumb 8.96335 -56.4881
lclavicle 3.37934e-015 7.35503e-015
lhumerus -22.5509 6.49592 84.5894
lradius 15.6792
lwrist -1.59498
lhand -24.0889 -6.24673
lfingers 7.12502
lthumb 2.39151 23.7196
rfemur -13.5771 -1.74859 20.185
rtibia 20.8243
rfoot -13.4723 0.853812
rtoes 13.2044
lfemur -11.0898 6.52776 -17.5477
ltibia 17.6038
lfoot -10.2014 5.10308
ltoes -8.27215
693
root 0.451113 17.7103 11.0709 6.53004 -0.816831 -1.46838
lowerback -3.41263 0.200997 0.0156682
upperback 3.20518 0.215198 1.09902
thorax 5.22558 0.0845167 1.1464
lowerneck -12.5995 0.60267 -1.54679
upperneck 34.0345 1.14058 0.532065
head 13.5792 0.370274 0.655608
rclavicle -2.36057e-015 1.2921e-015
rhumerus -25.3378 -19.7095 -78.345
rradius 24.2209
rwrist 35.4508
rhand -17.3028 -26.692
rfingers 7.12502
rthumb 8.94311 -56.4825
lclavicle -2.36057e-015 1.2921e-015
lhumerus -22.5288 6.33902 84.6709
lradius 15.7481
lwrist -1.4106
lhand -24.0757 -6.209
lfingers 7.12502
lthumb 2.40423 23.7572
rfemur -13.588 -1.74321 20.1844
rtibia 20.8315
rfoot -13.472 0.850371
rtoes 13.1907
lfemur -11.0987 6.52932 -17.5501
ltibia 17.6114
lfoot -10.2036 5.1103
ltoes -8.27287
694
root 0.452153 17.7103 11.0713 6.53598 -0.821974 -1.46863
lowerback -3.41032 0.203367 0.0204061
upperback 3.21353 0.218064 1.09817
thorax 5.23297 0.0860862 1.14312
lowerneck -12.6005 0.604355 -1.54346
upperneck 34.1084 1.14093 0.537336
head 13.612 0.370905 0.657793
rclavicle -2.03754e-015 -8.44835e-015
rhumerus -25.2388 -19.4885 -78.4415
rradius 24.3901
rwrist 35.1982
rhand -17.3198 -26.6715
rfingers 7.12502
rthumb 8.92671 -56.4626
lclavicle -2.03754e-015 -8.44835e-015
lhumerus -22.4983 6.17612 84.7521
lradius 15.8107
lwrist -1.23973
lhand -24.0603 -6.18861
lfingers 7.12502
lthumb 2.41908 23.7774
rfemur -13.5978 -1.7424 20.1817
rtibia 20.8382
rfoot -13.4722 0.850148
rtoes 13.1832
lfemur -11.1059 6.5324 -17.5548
ltibia 17.6167
lfoot -10.207 5.1146
ltoes -8.27222
695
root 0.453211 17.7104 11.0718 6.5422 -0.824812 -1.46841
lowerback -3.40805 0.205527 0.0266992
upperback 3.2203 0.220621 1.09631
thorax 5.23873 0.0875919 1.13791
lowerneck -12.5967 0.603956 -1.5443
upperneck 34.1827 1.13708 0.548913
head 13.6439 0.370014 0.662566
rclavicle 2.23633e-016 5.1684e-015
rhumerus -25.1441 -19.2576 -78.541
rradius 24.5639
rwrist 34.9404
rhand -17.3359 -26.6428
rfingers 7.12502
rthumb 8.91126 -56.4346
lclavicle 2.23633e-016 5.1684e-015
lhumerus -22.4634 6.02258 84.8287
lradius 15.8624
lwrist -1.10588
lhand -24.059 -6.22135
lfingers 7.12502
lthumb 2.42037 23.7447
rfemur -13.6068 -1.74702 20.1783
rtibia 20.8441
rfoot -13.4731 0.854541
rtoes 13.1832
lfemur -11.1131 6.53512 -17.56
ltibia 17.6211
lfoot -10.2102 5.11865
ltoes -8.26986
696
root 0.454262 17.7104 11.0721 6.54844 -0.825414 -1.46526
lowerback -3.40185 0.206571 0.0296086
upperback 3.22352 0.221946 1.09445
thorax 5.23855 0.0883892 1.13442
lowerneck -12.5799 0.60105 -1.54942
upperneck 34.2538 1.12911 0.564102
head 13.6716 0.367318 0.668805
rclavicle 2.75814e-015 -4.67144e-015
rhumerus -25.0574 -19.0146 -78.6409
rradius 24.7431
rwrist 34.6836
rhand -17.3432 -26.6163
rfingers 7.12502
rthumb 8.90419 -56.4085
lclavicle 2.75814e-015 -4.67144e-015
lhumerus -22.4241 5.88423 84.9009
lradius 15.9017
lwrist -0.997307
lhand -24.0666 -6.30095
lfingers 7.12502
lthumb 2.41303 23.6651
rfemur -13.6149 -1.75378 20.1716
rtibia 20.8475
rfoot -13.4733 0.859389
rtoes 13.1825
lfemur -11.1228 6.53617 -17.5685
ltibia 17.6285
lfoot -10.2147 5.12226
ltoes -8.26952
697
root 0.455163 17.7104 11.072 6.55657 -0.824252 -1.46803
lowerback -3.39166 0.207445 0.0366225
upperback 3.22325 0.22273 1.09538
thorax 5.23245 0.0890436 1.13145
lowerneck -12.5596 0.59527 -1.55977
upperneck 34.3281 1.11638 0.584679
head 13.6999 0.362576 0.677414
rclavicle -2.65874e-015 -1.88845e-015
rhumerus -24.9741 -18.7685 -78.7403
rradius 24.9232
rwrist 34.4292
rhand -17.3514 -26.5893
rfingers 7.12502
rthumb 8.89626 -56.3817
lclavicle -2.65874e-015 -1.88845e-015
lhumerus -22.3845 5.75519 84.9716
lradius 15.941
lwrist -0.904172
lhand -24.0733 -6.39411
lfingers 7.12502
lthumb 2.40656 23.5721
rfemur -13.6246 -1.75365 20.1722
rtibia 20.8485
rfoot -13.4719 0.857462
rtoes 13.182
lfemur -11.1386 6.53679 -17.5698
ltibia 17.6399
lfoot -10.2178 5.12519
ltoes -8.27299
698
root 0.45598 17.7105 11.0717 6.56604 -0.821059 -1.48189
lowerback -3.37656 0.207853 0.0537775
upperback 3.2179 0.222194 1.10039
thorax 5.21827 0.0893783 1.12683
lowerneck -12.5329 0.587827 -1.57254
upperneck 34.4067 1.10134 0.606354
head 13.7288 0.35663 0.686545
rclavicle 2.5345e-015 1.28216e-014
rhumerus -24.9026 -18.5167 -78.838
rradius 25.1105
rwrist 34.1826
rhand -17.3574 -26.5678
rfingers 7.12502
rthumb 8.89051 -56.3605
lclavicle 2.5345e-015 1.28216e-014
lhumerus -22.351 5.63335 85.0408
lradius 15.9821
lwrist -0.821343
lhand -24.0719 -6.46932
lfingers 7.12502
lthumb 2.40789 23.4968
rfemur -13.6354 -1.74874 20.1858
rtibia 20.8467
rfoot -13.4686 0.848382
rtoes 13.1715
lfemur -11.1599 6.53693 -17.5581
ltibia 17.6555
lfoot -10.2202 5.12631
ltoes -8.27291
699
root 0.456703 17.7105 11.0712 6.57322 -0.81864 -1.49408
lowerback -3.35714 0.20796 0.0673033
upperback 3.2113 0.22147 1.10634
thorax 5.20032 0.0894772 1.12518
lowerneck -12.5111 0.580203 -1.58155
upperneck 34.4933 1.08704 0.622458
head 13.7625 0.350672 0.693022
rclavicle -8.94531e-016 4.47266e-015
rhumerus -24.8336 -18.267 -78.9354
rradius 25.2989
rwrist 33.9436
rhand -17.3668 -26.5523
rfingers 7.12502
rthumb 8.88139 -56.3454
lclavicle -8.94531e-016 4.47266e-015
lhumerus -22.3167 5.51091 85.112
lradius 16.028
lwrist -0.734111
lhand -24.0812 -6.53642
lfingers 7.12502
lthumb 2.39892 23.4298
rfemur -13.6435 -1.74074 20.198
rtibia 20.8434
rfoot -13.465 0.835288
rtoes 13.1494
lfemur -11.1804 6.53889 -17.5475
ltibia 17.6733
lfoot -10.2225 5.12583
ltoes -8.27756
